<mxfile host="65bd71144e">
    <diagram id="j1WZqoqJ6IhdL_Qheeui" name="Страница 1">
        <mxGraphModel dx="1204" dy="519" grid="1" gridSize="10" guides="1" tooltips="1" connect="1" arrows="1" fold="1" page="1" pageScale="1" pageWidth="827" pageHeight="1169" math="0" shadow="0">
            <root>
                <mxCell id="0"/>
                <mxCell id="1" parent="0"/>
                <mxCell id="4" value="Figure (abstract)" style="swimlane;fontSize=21;" vertex="1" parent="1">
                    <mxGeometry x="280" y="80" width="200" height="130" as="geometry"/>
                </mxCell>
                <mxCell id="3" value="&lt;font style=&quot;font-size: 18px&quot;&gt;getArea()&lt;br&gt;getPerimeter()&lt;br&gt;info()&lt;/font&gt;" style="text;html=1;strokeColor=none;fillColor=none;align=center;verticalAlign=middle;whiteSpace=wrap;rounded=0;fontSize=23;" vertex="1" parent="4">
                    <mxGeometry x="70" y="50" width="60" height="50" as="geometry"/>
                </mxCell>
                <mxCell id="6" value="Tetragon" style="ellipse;whiteSpace=wrap;html=1;fontSize=21;" vertex="1" parent="1">
                    <mxGeometry x="120" y="240" width="140" height="60" as="geometry"/>
                </mxCell>
                <mxCell id="7" value="" style="endArrow=none;startArrow=classic;html=1;fontSize=21;endFill=0;" edge="1" parent="1">
                    <mxGeometry width="50" height="50" relative="1" as="geometry">
                        <mxPoint x="230" y="240" as="sourcePoint"/>
                        <mxPoint x="280" y="190" as="targetPoint"/>
                    </mxGeometry>
                </mxCell>
                <mxCell id="8" value="ParallelTetragon" style="ellipse;whiteSpace=wrap;html=1;fontSize=21;" vertex="1" parent="1">
                    <mxGeometry x="190" y="330" width="210" height="80" as="geometry"/>
                </mxCell>
                <mxCell id="9" value="" style="endArrow=none;startArrow=classic;html=1;fontSize=21;endFill=0;" edge="1" parent="1">
                    <mxGeometry width="50" height="50" relative="1" as="geometry">
                        <mxPoint x="280" y="320" as="sourcePoint"/>
                        <mxPoint x="215" y="310" as="targetPoint"/>
                    </mxGeometry>
                </mxCell>
                <mxCell id="10" value="Rhombus" style="ellipse;whiteSpace=wrap;html=1;fontSize=21;" vertex="1" parent="1">
                    <mxGeometry x="370" y="430" width="120" height="50" as="geometry"/>
                </mxCell>
                <mxCell id="11" value="" style="endArrow=none;startArrow=classic;html=1;fontSize=21;endFill=0;" edge="1" parent="1">
                    <mxGeometry width="50" height="50" relative="1" as="geometry">
                        <mxPoint x="425" y="416" as="sourcePoint"/>
                        <mxPoint x="360" y="406" as="targetPoint"/>
                    </mxGeometry>
                </mxCell>
                <mxCell id="12" value="Rectangle" style="ellipse;whiteSpace=wrap;html=1;fontSize=21;" vertex="1" parent="1">
                    <mxGeometry x="120" y="430" width="120" height="50" as="geometry"/>
                </mxCell>
                <mxCell id="13" value="" style="endArrow=none;startArrow=classic;html=1;fontSize=21;endFill=0;exitX=0.5;exitY=0;exitDx=0;exitDy=0;" edge="1" parent="1" source="12" target="8">
                    <mxGeometry width="50" height="50" relative="1" as="geometry">
                        <mxPoint x="435" y="426" as="sourcePoint"/>
                        <mxPoint x="370" y="416" as="targetPoint"/>
                    </mxGeometry>
                </mxCell>
                <mxCell id="14" value="Square" style="ellipse;whiteSpace=wrap;html=1;fontSize=21;" vertex="1" parent="1">
                    <mxGeometry x="20" y="507" width="120" height="50" as="geometry"/>
                </mxCell>
                <mxCell id="15" value="" style="endArrow=none;startArrow=classic;html=1;fontSize=21;endFill=0;exitX=0.5;exitY=0;exitDx=0;exitDy=0;" edge="1" parent="1">
                    <mxGeometry width="50" height="50" relative="1" as="geometry">
                        <mxPoint x="100" y="507.69" as="sourcePoint"/>
                        <mxPoint x="153.08201145993166" y="479.995037499166" as="targetPoint"/>
                    </mxGeometry>
                </mxCell>
                <mxCell id="16" value="Round" style="ellipse;whiteSpace=wrap;html=1;fontSize=21;" vertex="1" parent="1">
                    <mxGeometry x="560" y="105" width="120" height="45" as="geometry"/>
                </mxCell>
                <mxCell id="17" value="" style="endArrow=none;startArrow=classic;html=1;fontSize=21;endFill=0;exitX=-0.008;exitY=0.733;exitDx=0;exitDy=0;exitPerimeter=0;" edge="1" parent="1" source="16">
                    <mxGeometry width="50" height="50" relative="1" as="geometry">
                        <mxPoint x="545" y="170" as="sourcePoint"/>
                        <mxPoint x="480" y="160" as="targetPoint"/>
                    </mxGeometry>
                </mxCell>
                <mxCell id="18" value="Oval" style="ellipse;whiteSpace=wrap;html=1;fontSize=21;" vertex="1" parent="1">
                    <mxGeometry x="610" y="210" width="120" height="50" as="geometry"/>
                </mxCell>
                <mxCell id="19" value="" style="endArrow=none;startArrow=classic;html=1;fontSize=21;endFill=0;" edge="1" parent="1">
                    <mxGeometry width="50" height="50" relative="1" as="geometry">
                        <mxPoint x="670" y="200" as="sourcePoint"/>
                        <mxPoint x="640" y="160" as="targetPoint"/>
                    </mxGeometry>
                </mxCell>
                <mxCell id="20" value="Triangle" style="ellipse;whiteSpace=wrap;html=1;fontSize=21;" vertex="1" parent="1">
                    <mxGeometry x="70" y="60" width="120" height="50" as="geometry"/>
                </mxCell>
                <mxCell id="21" value="" style="endArrow=none;startArrow=classic;html=1;fontSize=21;endFill=0;" edge="1" parent="1" source="20">
                    <mxGeometry width="50" height="50" relative="1" as="geometry">
                        <mxPoint x="220" y="158.85000000000008" as="sourcePoint"/>
                        <mxPoint x="273.08201145993166" y="131.1550374991661" as="targetPoint"/>
                    </mxGeometry>
                </mxCell>
            </root>
        </mxGraphModel>
    </diagram>
</mxfile>